<?xml version="1.0" encoding="UTF-8" standalone="no"?>
<!DOCTYPE svg PUBLIC "-//W3C//DTD SVG 1.0//EN"
 "http://www.w3.org/TR/2001/REC-SVG-20010904/DTD/svg10.dtd" [
 <!ATTLIST svg xmlns:xlink CDATA #FIXED "http://www.w3.org/1999/xlink">
]>
<!-- Generated by dot version 2.8 (Wed Dec 20 14:50:18 UTC 2006)
     For user: (avacavan) Antoine Vacavant,,, -->
<!-- Title: g Pages: 1 -->
<svg width="1014pt" height="571pt"
 viewBox = "0 0 1014 571"
 xmlns="http://www.w3.org/2000/svg" xmlns:xlink="http://www.w3.org/1999/xlink">
<g id="graph0" class="graph" style="font-family:Times-Roman;font-size:14.00;">
<title>g</title>
<polygon style="fill:white;stroke:white;" points="-2,573 -2,-2 1016,-2 1016,573 -2,573"/>
<!-- 1 -->
<g id="node1" class="node"><title>1</title>
<ellipse style="fill:white;stroke:black;" cx="32" cy="373" rx="27" ry="18"/>
<text text-anchor="middle" x="32" y="378">b</text>
</g>
<!-- 2 -->
<g id="node2" class="node"><title>2</title>
<ellipse style="fill:white;stroke:black;" cx="32" cy="373" rx="27" ry="18"/>
<text text-anchor="middle" x="32" y="378">bs</text>
</g>
<!-- 1&#45;&#45;2 -->
<g id="edge2" class="edge"><title>1&#45;&#45;2</title>
<path style="fill:none;stroke:black;" d="M32,373C32,373 32,373 32,373"/>
</g>
<!-- 12 -->
<g id="node4" class="node"><title>12</title>
<ellipse style="fill:white;stroke:black;" cx="232" cy="548" rx="27" ry="18"/>
<text text-anchor="middle" x="232" y="553">s</text>
</g>
<!-- 2&#45;&#45;12 -->
<g id="edge4" class="edge"><title>2&#45;&#45;12</title>
<path style="fill:none;stroke:black;" d="M48,387C86,420 178,500 215,533"/>
</g>
<!-- 22 -->
<g id="node6" class="node"><title>22</title>
<ellipse style="fill:white;stroke:black;" cx="382" cy="223" rx="27" ry="18"/>
<text text-anchor="middle" x="382" y="228">s</text>
</g>
<!-- 2&#45;&#45;22 -->
<g id="edge6" class="edge"><title>2&#45;&#45;22</title>
<path style="fill:none;stroke:black;" d="M55,363C119,336 295,260 359,233"/>
</g>
<!-- 32 -->
<g id="node8" class="node"><title>32</title>
<ellipse style="fill:white;stroke:black;" cx="832" cy="498" rx="27" ry="18"/>
<text text-anchor="middle" x="832" y="503">m</text>
</g>
<!-- 12&#45;&#45;32 -->
<g id="edge8" class="edge"><title>12&#45;&#45;32</title>
<path style="fill:none;stroke:black;" d="M259,546C359,537 706,509 805,500"/>
</g>
<!-- 42 -->
<g id="node10" class="node"><title>42</title>
<ellipse style="fill:white;stroke:black;" cx="582" cy="398" rx="27" ry="18"/>
<text text-anchor="middle" x="582" y="403">m</text>
</g>
<!-- 12&#45;&#45;42 -->
<g id="edge10" class="edge"><title>12&#45;&#45;42</title>
<path style="fill:none;stroke:black;" d="M255,538C319,511 495,435 559,408"/>
</g>
<!-- 22&#45;&#45;42 -->
<g id="edge12" class="edge"><title>22&#45;&#45;42</title>
<path style="fill:none;stroke:black;" d="M398,237C436,270 528,350 565,383"/>
</g>
<!-- 62 -->
<g id="node13" class="node"><title>62</title>
<ellipse style="fill:white;stroke:black;" cx="982" cy="23" rx="27" ry="18"/>
<text text-anchor="middle" x="982" y="28">m</text>
</g>
<!-- 22&#45;&#45;62 -->
<g id="edge14" class="edge"><title>22&#45;&#45;62</title>
<path style="fill:none;stroke:black;" d="M406,215C503,182 861,63 958,31"/>
</g>
<!-- 32&#45;&#45;62 -->
<g id="edge16" class="edge"><title>32&#45;&#45;62</title>
<path style="fill:none;stroke:black;" d="M838,480C861,405 953,117 976,41"/>
</g>
<!-- 42&#45;&#45;32 -->
<g id="edge18" class="edge"><title>42&#45;&#45;32</title>
<path style="fill:none;stroke:black;" d="M606,407C654,426 761,470 809,489"/>
</g>
<!-- 92 -->
<g id="node17" class="node"><title>92</title>
<ellipse style="fill:white;stroke:black;" cx="982" cy="23" rx="27" ry="18"/>
<text text-anchor="middle" x="982" y="28">me</text>
</g>
<!-- 62&#45;&#45;92 -->
<g id="edge20" class="edge"><title>62&#45;&#45;92</title>
<path style="fill:none;stroke:black;" d="M982,23C982,23 982,23 982,23"/>
</g>
</g>
</svg>
