<?xml version="1.0" encoding="UTF-8" standalone="no"?>
<!DOCTYPE svg PUBLIC "-//W3C//DTD SVG 1.0//EN"
 "http://www.w3.org/TR/2001/REC-SVG-20010904/DTD/svg10.dtd" [
 <!ATTLIST svg xmlns:xlink CDATA #FIXED "http://www.w3.org/1999/xlink">
]>
<!-- Generated by dot version 2.8 (Wed Dec 20 14:50:18 UTC 2006)
     For user: (dcoeurjo) David Coeurjolly,,,, -->
<!-- Title: G Pages: 1 -->
<svg width="632pt" height="732pt"
 viewBox = "0 0 632 732"
 xmlns="http://www.w3.org/2000/svg" xmlns:xlink="http://www.w3.org/1999/xlink">
<g id="graph0" class="graph" style="font-family:Times-Roman;font-size:14.00;">
<title>G</title>
<polygon style="fill:white;stroke:white;" points="-2,734 -2,-2 634,-2 634,734 -2,734"/>
<!-- 000 -->
<g id="node1" class="node"><title>000</title>
<ellipse style="fill:none;stroke:black;" cx="16" cy="716" rx="11" ry="11"/>
</g>
<!-- 010 -->
<g id="node8" class="node"><title>010</title>
</g>
<!-- 000&#45;&gt;010 -->
<g id="edge3" class="edge"><title>000&#45;&gt;010</title>
<path style="fill:none;stroke:black;" d="M16,705C16,689 16,658 16,637"/>
<polygon style="fill:black;stroke:black;" points="13,637 16,627 20,637 13,637"/>
</g>
<!-- 100 -->
<g id="node2" class="node"><title>100</title>
<ellipse style="fill:none;stroke:black;" cx="116" cy="716" rx="11" ry="11"/>
</g>
<!-- 100&#45;&gt;010 -->
<g id="edge6" class="edge"><title>100&#45;&gt;010</title>
<path style="fill:none;stroke:black;" d="M108,708C92,692 53,653 31,631"/>
<polygon style="fill:black;stroke:black;" points="29,634 24,624 34,629 29,634"/>
</g>
<!-- 200 -->
<g id="node3" class="node"><title>200</title>
<ellipse style="fill:none;stroke:black;" cx="216" cy="716" rx="11" ry="11"/>
</g>
<!-- 300 -->
<g id="node4" class="node"><title>300</title>
</g>
<!-- 200&#45;&gt;300 -->
<g id="edge9" class="edge"><title>200&#45;&gt;300</title>
<path style="fill:none;stroke:black;" d="M227,716C243,716 274,716 295,716"/>
<polygon style="fill:black;stroke:black;" points="295,712 305,716 295,719 295,712"/>
</g>
<!-- 400 -->
<g id="node5" class="node"><title>400</title>
<ellipse style="fill:none;stroke:black;" cx="416" cy="716" rx="11" ry="11"/>
</g>
<!-- 400&#45;&gt;300 -->
<g id="edge12" class="edge"><title>400&#45;&gt;300</title>
<path style="fill:none;stroke:black;" d="M405,716C389,716 358,716 337,716"/>
<polygon style="fill:black;stroke:black;" points="337,719 327,716 337,712 337,719"/>
</g>
<!-- 500 -->
<g id="node6" class="node"><title>500</title>
<ellipse style="fill:none;stroke:black;" cx="516" cy="716" rx="11" ry="11"/>
</g>
<!-- 610 -->
<g id="node14" class="node"><title>610</title>
</g>
<!-- 500&#45;&gt;610 -->
<g id="edge15" class="edge"><title>500&#45;&gt;610</title>
<path style="fill:none;stroke:black;" d="M524,708C540,692 579,653 601,631"/>
<polygon style="fill:black;stroke:black;" points="598,629 608,624 603,634 598,629"/>
</g>
<!-- 600 -->
<g id="node7" class="node"><title>600</title>
<ellipse style="fill:none;stroke:black;" cx="616" cy="716" rx="11" ry="11"/>
</g>
<!-- 600&#45;&gt;610 -->
<g id="edge18" class="edge"><title>600&#45;&gt;610</title>
<path style="fill:none;stroke:black;" d="M616,705C616,689 616,658 616,637"/>
<polygon style="fill:black;stroke:black;" points="613,637 616,627 620,637 613,637"/>
</g>
<!-- 110 -->
<g id="node9" class="node"><title>110</title>
<ellipse style="fill:none;stroke:black;" cx="116" cy="616" rx="11" ry="11"/>
</g>
<!-- 110&#45;&gt;010 -->
<g id="edge21" class="edge"><title>110&#45;&gt;010</title>
<path style="fill:none;stroke:black;" d="M105,616C89,616 58,616 37,616"/>
<polygon style="fill:black;stroke:black;" points="37,619 27,616 37,612 37,619"/>
</g>
<!-- 210 -->
<g id="node10" class="node"><title>210</title>
<ellipse style="fill:none;stroke:black;" cx="216" cy="616" rx="11" ry="11"/>
</g>
<!-- 210&#45;&gt;300 -->
<g id="edge24" class="edge"><title>210&#45;&gt;300</title>
<path style="fill:none;stroke:black;" d="M224,624C240,640 279,679 301,701"/>
<polygon style="fill:black;stroke:black;" points="303,698 308,708 298,703 303,698"/>
</g>
<!-- 310 -->
<g id="node11" class="node"><title>310</title>
<ellipse style="fill:none;stroke:black;" cx="316" cy="616" rx="11" ry="11"/>
</g>
<!-- 310&#45;&gt;300 -->
<g id="edge27" class="edge"><title>310&#45;&gt;300</title>
<path style="fill:none;stroke:black;" d="M316,627C316,643 316,674 316,695"/>
<polygon style="fill:black;stroke:black;" points="320,695 316,705 313,695 320,695"/>
</g>
<!-- 410 -->
<g id="node12" class="node"><title>410</title>
<ellipse style="fill:none;stroke:black;" cx="416" cy="616" rx="11" ry="11"/>
</g>
<!-- 410&#45;&gt;300 -->
<g id="edge30" class="edge"><title>410&#45;&gt;300</title>
<path style="fill:none;stroke:black;" d="M408,624C392,640 353,679 331,701"/>
<polygon style="fill:black;stroke:black;" points="334,703 324,708 329,698 334,703"/>
</g>
<!-- 510 -->
<g id="node13" class="node"><title>510</title>
<ellipse style="fill:none;stroke:black;" cx="516" cy="616" rx="11" ry="11"/>
</g>
<!-- 510&#45;&gt;610 -->
<g id="edge33" class="edge"><title>510&#45;&gt;610</title>
<path style="fill:none;stroke:black;" d="M527,616C543,616 574,616 595,616"/>
<polygon style="fill:black;stroke:black;" points="595,612 605,616 595,619 595,612"/>
</g>
<!-- 020 -->
<g id="node15" class="node"><title>020</title>
<ellipse style="fill:none;stroke:black;" cx="16" cy="516" rx="11" ry="11"/>
</g>
<!-- 020&#45;&gt;010 -->
<g id="edge36" class="edge"><title>020&#45;&gt;010</title>
<path style="fill:none;stroke:black;" d="M16,527C16,543 16,574 16,595"/>
<polygon style="fill:black;stroke:black;" points="20,595 16,605 13,595 20,595"/>
</g>
<!-- 120 -->
<g id="node16" class="node"><title>120</title>
<ellipse style="fill:none;stroke:black;" cx="116" cy="516" rx="11" ry="11"/>
</g>
<!-- 120&#45;&gt;010 -->
<g id="edge39" class="edge"><title>120&#45;&gt;010</title>
<path style="fill:none;stroke:black;" d="M108,524C92,540 53,579 31,601"/>
<polygon style="fill:black;stroke:black;" points="34,603 24,608 29,598 34,603"/>
</g>
<!-- 220 -->
<g id="node17" class="node"><title>220</title>
<ellipse style="fill:none;stroke:black;" cx="216" cy="516" rx="11" ry="11"/>
</g>
<!-- 220&#45;&gt;300 -->
<g id="edge42" class="edge"><title>220&#45;&gt;300</title>
<path style="fill:none;stroke:black;" d="M221,526C237,557 286,655 306,697"/>
<polygon style="fill:black;stroke:black;" points="309,696 311,706 303,699 309,696"/>
</g>
<!-- 220&#45;&gt;010 -->
<g id="edge43" class="edge"><title>220&#45;&gt;010</title>
<path style="fill:none;stroke:black;" d="M206,521C175,537 77,586 35,606"/>
<polygon style="fill:black;stroke:black;" points="36,609 26,611 33,603 36,609"/>
</g>
<!-- 430 -->
<g id="node26" class="node"><title>430</title>
</g>
<!-- 220&#45;&gt;430 -->
<g id="edge44" class="edge"><title>220&#45;&gt;430</title>
<path style="fill:none;stroke:black;" d="M226,511C257,495 355,446 397,426"/>
<polygon style="fill:black;stroke:black;" points="396,423 406,421 399,429 396,423"/>
</g>
<!-- 140 -->
<g id="node30" class="node"><title>140</title>
</g>
<!-- 220&#45;&gt;140 -->
<g id="edge45" class="edge"><title>220&#45;&gt;140</title>
<path style="fill:none;stroke:black;" d="M211,506C195,475 146,377 126,335"/>
<polygon style="fill:black;stroke:black;" points="123,336 121,326 129,333 123,336"/>
</g>
<!-- 320 -->
<g id="node18" class="node"><title>320</title>
<ellipse style="fill:none;stroke:black;" cx="316" cy="516" rx="11" ry="11"/>
</g>
<!-- 320&#45;&gt;430 -->
<g id="edge48" class="edge"><title>320&#45;&gt;430</title>
<path style="fill:none;stroke:black;" d="M324,508C340,492 379,453 401,431"/>
<polygon style="fill:black;stroke:black;" points="398,429 408,424 403,434 398,429"/>
</g>
<!-- 420 -->
<g id="node19" class="node"><title>420</title>
<ellipse style="fill:none;stroke:black;" cx="416" cy="516" rx="11" ry="11"/>
</g>
<!-- 420&#45;&gt;430 -->
<g id="edge51" class="edge"><title>420&#45;&gt;430</title>
<path style="fill:none;stroke:black;" d="M416,505C416,489 416,458 416,437"/>
<polygon style="fill:black;stroke:black;" points="413,437 416,427 420,437 413,437"/>
</g>
<!-- 520 -->
<g id="node20" class="node"><title>520</title>
<ellipse style="fill:none;stroke:black;" cx="516" cy="516" rx="11" ry="11"/>
</g>
<!-- 520&#45;&gt;610 -->
<g id="edge54" class="edge"><title>520&#45;&gt;610</title>
<path style="fill:none;stroke:black;" d="M524,524C540,540 579,579 601,601"/>
<polygon style="fill:black;stroke:black;" points="603,598 608,608 598,603 603,598"/>
</g>
<!-- 520&#45;&gt;430 -->
<g id="edge55" class="edge"><title>520&#45;&gt;430</title>
<path style="fill:none;stroke:black;" d="M508,508C492,492 453,453 431,431"/>
<polygon style="fill:black;stroke:black;" points="429,434 424,424 434,429 429,434"/>
</g>
<!-- 620 -->
<g id="node21" class="node"><title>620</title>
<ellipse style="fill:none;stroke:black;" cx="616" cy="516" rx="11" ry="11"/>
</g>
<!-- 620&#45;&gt;610 -->
<g id="edge58" class="edge"><title>620&#45;&gt;610</title>
<path style="fill:none;stroke:black;" d="M616,527C616,543 616,574 616,595"/>
<polygon style="fill:black;stroke:black;" points="620,595 616,605 613,595 620,595"/>
</g>
<!-- 030 -->
<g id="node22" class="node"><title>030</title>
<ellipse style="fill:none;stroke:black;" cx="16" cy="416" rx="11" ry="11"/>
</g>
<!-- 030&#45;&gt;140 -->
<g id="edge61" class="edge"><title>030&#45;&gt;140</title>
<path style="fill:none;stroke:black;" d="M24,408C40,392 79,353 101,331"/>
<polygon style="fill:black;stroke:black;" points="98,329 108,324 103,334 98,329"/>
</g>
<!-- 130 -->
<g id="node23" class="node"><title>130</title>
<ellipse style="fill:none;stroke:black;" cx="116" cy="416" rx="11" ry="11"/>
</g>
<!-- 130&#45;&gt;140 -->
<g id="edge64" class="edge"><title>130&#45;&gt;140</title>
<path style="fill:none;stroke:black;" d="M116,405C116,389 116,358 116,337"/>
<polygon style="fill:black;stroke:black;" points="113,337 116,327 120,337 113,337"/>
</g>
<!-- 230 -->
<g id="node24" class="node"><title>230</title>
<ellipse style="fill:none;stroke:black;" cx="216" cy="416" rx="11" ry="11"/>
</g>
<!-- 230&#45;&gt;140 -->
<g id="edge67" class="edge"><title>230&#45;&gt;140</title>
<path style="fill:none;stroke:black;" d="M208,408C192,392 153,353 131,331"/>
<polygon style="fill:black;stroke:black;" points="129,334 124,324 134,329 129,334"/>
</g>
<!-- 330 -->
<g id="node25" class="node"><title>330</title>
<ellipse style="fill:none;stroke:black;" cx="316" cy="416" rx="11" ry="11"/>
</g>
<!-- 330&#45;&gt;430 -->
<g id="edge70" class="edge"><title>330&#45;&gt;430</title>
<path style="fill:none;stroke:black;" d="M327,416C343,416 374,416 395,416"/>
<polygon style="fill:black;stroke:black;" points="395,412 405,416 395,419 395,412"/>
</g>
<!-- 530 -->
<g id="node27" class="node"><title>530</title>
<ellipse style="fill:none;stroke:black;" cx="516" cy="416" rx="11" ry="11"/>
</g>
<!-- 530&#45;&gt;430 -->
<g id="edge73" class="edge"><title>530&#45;&gt;430</title>
<path style="fill:none;stroke:black;" d="M505,416C489,416 458,416 437,416"/>
<polygon style="fill:black;stroke:black;" points="437,419 427,416 437,412 437,419"/>
</g>
<!-- 540 -->
<g id="node34" class="node"><title>540</title>
</g>
<!-- 530&#45;&gt;540 -->
<g id="edge74" class="edge"><title>530&#45;&gt;540</title>
<path style="fill:none;stroke:black;" d="M516,405C516,389 516,358 516,337"/>
<polygon style="fill:black;stroke:black;" points="513,337 516,327 520,337 513,337"/>
</g>
<!-- 630 -->
<g id="node28" class="node"><title>630</title>
<ellipse style="fill:none;stroke:black;" cx="616" cy="416" rx="11" ry="11"/>
</g>
<!-- 630&#45;&gt;540 -->
<g id="edge77" class="edge"><title>630&#45;&gt;540</title>
<path style="fill:none;stroke:black;" d="M608,408C592,392 553,353 531,331"/>
<polygon style="fill:black;stroke:black;" points="529,334 524,324 534,329 529,334"/>
</g>
<!-- 040 -->
<g id="node29" class="node"><title>040</title>
<ellipse style="fill:none;stroke:black;" cx="16" cy="316" rx="11" ry="11"/>
</g>
<!-- 040&#45;&gt;140 -->
<g id="edge80" class="edge"><title>040&#45;&gt;140</title>
<path style="fill:none;stroke:black;" d="M27,316C43,316 74,316 95,316"/>
<polygon style="fill:black;stroke:black;" points="95,312 105,316 95,319 95,312"/>
</g>
<!-- 240 -->
<g id="node31" class="node"><title>240</title>
<ellipse style="fill:none;stroke:black;" cx="216" cy="316" rx="11" ry="11"/>
</g>
<!-- 240&#45;&gt;140 -->
<g id="edge83" class="edge"><title>240&#45;&gt;140</title>
<path style="fill:none;stroke:black;" d="M205,316C189,316 158,316 137,316"/>
<polygon style="fill:black;stroke:black;" points="137,319 127,316 137,312 137,319"/>
</g>
<!-- 250 -->
<g id="node38" class="node"><title>250</title>
</g>
<!-- 240&#45;&gt;250 -->
<g id="edge84" class="edge"><title>240&#45;&gt;250</title>
<path style="fill:none;stroke:black;" d="M216,305C216,289 216,258 216,237"/>
<polygon style="fill:black;stroke:black;" points="213,237 216,227 220,237 213,237"/>
</g>
<!-- 340 -->
<g id="node32" class="node"><title>340</title>
<ellipse style="fill:none;stroke:black;" cx="316" cy="316" rx="11" ry="11"/>
</g>
<!-- 340&#45;&gt;430 -->
<g id="edge87" class="edge"><title>340&#45;&gt;430</title>
<path style="fill:none;stroke:black;" d="M324,324C340,340 379,379 401,401"/>
<polygon style="fill:black;stroke:black;" points="403,398 408,408 398,403 403,398"/>
</g>
<!-- 340&#45;&gt;250 -->
<g id="edge88" class="edge"><title>340&#45;&gt;250</title>
<path style="fill:none;stroke:black;" d="M308,308C292,292 253,253 231,231"/>
<polygon style="fill:black;stroke:black;" points="229,234 224,224 234,229 229,234"/>
</g>
<!-- 440 -->
<g id="node33" class="node"><title>440</title>
<ellipse style="fill:none;stroke:black;" cx="416" cy="316" rx="11" ry="11"/>
</g>
<!-- 440&#45;&gt;430 -->
<g id="edge91" class="edge"><title>440&#45;&gt;430</title>
<path style="fill:none;stroke:black;" d="M416,327C416,343 416,374 416,395"/>
<polygon style="fill:black;stroke:black;" points="420,395 416,405 413,395 420,395"/>
</g>
<!-- 440&#45;&gt;540 -->
<g id="edge92" class="edge"><title>440&#45;&gt;540</title>
<path style="fill:none;stroke:black;" d="M427,316C443,316 474,316 495,316"/>
<polygon style="fill:black;stroke:black;" points="495,312 505,316 495,319 495,312"/>
</g>
<!-- 640 -->
<g id="node35" class="node"><title>640</title>
<ellipse style="fill:none;stroke:black;" cx="616" cy="316" rx="11" ry="11"/>
</g>
<!-- 640&#45;&gt;540 -->
<g id="edge95" class="edge"><title>640&#45;&gt;540</title>
<path style="fill:none;stroke:black;" d="M605,316C589,316 558,316 537,316"/>
<polygon style="fill:black;stroke:black;" points="537,319 527,316 537,312 537,319"/>
</g>
<!-- 050 -->
<g id="node36" class="node"><title>050</title>
<ellipse style="fill:none;stroke:black;" cx="16" cy="216" rx="11" ry="11"/>
</g>
<!-- 050&#45;&gt;140 -->
<g id="edge98" class="edge"><title>050&#45;&gt;140</title>
<path style="fill:none;stroke:black;" d="M24,224C40,240 79,279 101,301"/>
<polygon style="fill:black;stroke:black;" points="103,298 108,308 98,303 103,298"/>
</g>
<!-- 150 -->
<g id="node37" class="node"><title>150</title>
<ellipse style="fill:none;stroke:black;" cx="116" cy="216" rx="11" ry="11"/>
</g>
<!-- 150&#45;&gt;140 -->
<g id="edge101" class="edge"><title>150&#45;&gt;140</title>
<path style="fill:none;stroke:black;" d="M116,227C116,243 116,274 116,295"/>
<polygon style="fill:black;stroke:black;" points="120,295 116,305 113,295 120,295"/>
</g>
<!-- 150&#45;&gt;250 -->
<g id="edge102" class="edge"><title>150&#45;&gt;250</title>
<path style="fill:none;stroke:black;" d="M127,216C143,216 174,216 195,216"/>
<polygon style="fill:black;stroke:black;" points="195,212 205,216 195,219 195,212"/>
</g>
<!-- 350 -->
<g id="node39" class="node"><title>350</title>
<ellipse style="fill:none;stroke:black;" cx="316" cy="216" rx="11" ry="11"/>
</g>
<!-- 350&#45;&gt;250 -->
<g id="edge105" class="edge"><title>350&#45;&gt;250</title>
<path style="fill:none;stroke:black;" d="M305,216C289,216 258,216 237,216"/>
<polygon style="fill:black;stroke:black;" points="237,219 227,216 237,212 237,219"/>
</g>
<!-- 450 -->
<g id="node40" class="node"><title>450</title>
<ellipse style="fill:none;stroke:black;" cx="416" cy="216" rx="11" ry="11"/>
</g>
<!-- 450&#45;&gt;540 -->
<g id="edge108" class="edge"><title>450&#45;&gt;540</title>
<path style="fill:none;stroke:black;" d="M424,224C440,240 479,279 501,301"/>
<polygon style="fill:black;stroke:black;" points="503,298 508,308 498,303 503,298"/>
</g>
<!-- 550 -->
<g id="node41" class="node"><title>550</title>
<ellipse style="fill:none;stroke:black;" cx="516" cy="216" rx="11" ry="11"/>
</g>
<!-- 550&#45;&gt;540 -->
<g id="edge111" class="edge"><title>550&#45;&gt;540</title>
<path style="fill:none;stroke:black;" d="M516,227C516,243 516,274 516,295"/>
<polygon style="fill:black;stroke:black;" points="520,295 516,305 513,295 520,295"/>
</g>
<!-- 650 -->
<g id="node42" class="node"><title>650</title>
<ellipse style="fill:none;stroke:black;" cx="616" cy="216" rx="11" ry="11"/>
</g>
<!-- 650&#45;&gt;540 -->
<g id="edge114" class="edge"><title>650&#45;&gt;540</title>
<path style="fill:none;stroke:black;" d="M608,224C592,240 553,279 531,301"/>
<polygon style="fill:black;stroke:black;" points="534,303 524,308 529,298 534,303"/>
</g>
<!-- 060 -->
<g id="node43" class="node"><title>060</title>
<ellipse style="fill:none;stroke:black;" cx="16" cy="116" rx="11" ry="11"/>
</g>
<!-- 170 -->
<g id="node51" class="node"><title>170</title>
</g>
<!-- 060&#45;&gt;170 -->
<g id="edge117" class="edge"><title>060&#45;&gt;170</title>
<path style="fill:none;stroke:black;" d="M24,108C40,92 79,53 101,31"/>
<polygon style="fill:black;stroke:black;" points="98,29 108,24 103,34 98,29"/>
</g>
<!-- 160 -->
<g id="node44" class="node"><title>160</title>
<ellipse style="fill:none;stroke:black;" cx="116" cy="116" rx="11" ry="11"/>
</g>
<!-- 160&#45;&gt;170 -->
<g id="edge120" class="edge"><title>160&#45;&gt;170</title>
<path style="fill:none;stroke:black;" d="M116,105C116,89 116,58 116,37"/>
<polygon style="fill:black;stroke:black;" points="113,37 116,27 120,37 113,37"/>
</g>
<!-- 260 -->
<g id="node45" class="node"><title>260</title>
<ellipse style="fill:none;stroke:black;" cx="216" cy="116" rx="11" ry="11"/>
</g>
<!-- 260&#45;&gt;250 -->
<g id="edge123" class="edge"><title>260&#45;&gt;250</title>
<path style="fill:none;stroke:black;" d="M216,127C216,143 216,174 216,195"/>
<polygon style="fill:black;stroke:black;" points="220,195 216,205 213,195 220,195"/>
</g>
<!-- 360 -->
<g id="node46" class="node"><title>360</title>
<ellipse style="fill:none;stroke:black;" cx="316" cy="116" rx="11" ry="11"/>
</g>
<!-- 360&#45;&gt;250 -->
<g id="edge126" class="edge"><title>360&#45;&gt;250</title>
<path style="fill:none;stroke:black;" d="M308,124C292,140 253,179 231,201"/>
<polygon style="fill:black;stroke:black;" points="234,203 224,208 229,198 234,203"/>
</g>
<!-- 460 -->
<g id="node47" class="node"><title>460</title>
<ellipse style="fill:none;stroke:black;" cx="416" cy="116" rx="11" ry="11"/>
</g>
<!-- 570 -->
<g id="node55" class="node"><title>570</title>
</g>
<!-- 460&#45;&gt;570 -->
<g id="edge129" class="edge"><title>460&#45;&gt;570</title>
<path style="fill:none;stroke:black;" d="M424,108C440,92 479,53 501,31"/>
<polygon style="fill:black;stroke:black;" points="498,29 508,24 503,34 498,29"/>
</g>
<!-- 560 -->
<g id="node48" class="node"><title>560</title>
<ellipse style="fill:none;stroke:black;" cx="516" cy="116" rx="11" ry="11"/>
</g>
<!-- 560&#45;&gt;570 -->
<g id="edge132" class="edge"><title>560&#45;&gt;570</title>
<path style="fill:none;stroke:black;" d="M516,105C516,89 516,58 516,37"/>
<polygon style="fill:black;stroke:black;" points="513,37 516,27 520,37 513,37"/>
</g>
<!-- 660 -->
<g id="node49" class="node"><title>660</title>
<ellipse style="fill:none;stroke:black;" cx="616" cy="116" rx="11" ry="11"/>
</g>
<!-- 660&#45;&gt;570 -->
<g id="edge135" class="edge"><title>660&#45;&gt;570</title>
<path style="fill:none;stroke:black;" d="M608,108C592,92 553,53 531,31"/>
<polygon style="fill:black;stroke:black;" points="529,34 524,24 534,29 529,34"/>
</g>
<!-- 070 -->
<g id="node50" class="node"><title>070</title>
<ellipse style="fill:none;stroke:black;" cx="16" cy="16" rx="11" ry="11"/>
</g>
<!-- 070&#45;&gt;170 -->
<g id="edge138" class="edge"><title>070&#45;&gt;170</title>
<path style="fill:none;stroke:black;" d="M27,16C43,16 74,16 95,16"/>
<polygon style="fill:black;stroke:black;" points="95,12 105,16 95,19 95,12"/>
</g>
<!-- 270 -->
<g id="node52" class="node"><title>270</title>
<ellipse style="fill:none;stroke:black;" cx="216" cy="16" rx="11" ry="11"/>
</g>
<!-- 270&#45;&gt;170 -->
<g id="edge141" class="edge"><title>270&#45;&gt;170</title>
<path style="fill:none;stroke:black;" d="M205,16C189,16 158,16 137,16"/>
<polygon style="fill:black;stroke:black;" points="137,19 127,16 137,12 137,19"/>
</g>
<!-- 370 -->
<g id="node53" class="node"><title>370</title>
<ellipse style="fill:none;stroke:black;" cx="316" cy="16" rx="11" ry="11"/>
</g>
<!-- 370&#45;&gt;170 -->
<g id="edge144" class="edge"><title>370&#45;&gt;170</title>
<path style="fill:none;stroke:black;" d="M305,16C273,16 179,16 137,16"/>
<polygon style="fill:black;stroke:black;" points="137,19 127,16 137,12 137,19"/>
</g>
<!-- 370&#45;&gt;570 -->
<g id="edge145" class="edge"><title>370&#45;&gt;570</title>
<path style="fill:none;stroke:black;" d="M327,16C359,16 453,16 495,16"/>
<polygon style="fill:black;stroke:black;" points="495,12 505,16 495,19 495,12"/>
</g>
<!-- 470 -->
<g id="node54" class="node"><title>470</title>
<ellipse style="fill:none;stroke:black;" cx="416" cy="16" rx="11" ry="11"/>
</g>
<!-- 470&#45;&gt;570 -->
<g id="edge148" class="edge"><title>470&#45;&gt;570</title>
<path style="fill:none;stroke:black;" d="M427,16C443,16 474,16 495,16"/>
<polygon style="fill:black;stroke:black;" points="495,12 505,16 495,19 495,12"/>
</g>
<!-- 670 -->
<g id="node56" class="node"><title>670</title>
<ellipse style="fill:none;stroke:black;" cx="616" cy="16" rx="11" ry="11"/>
</g>
<!-- 670&#45;&gt;570 -->
<g id="edge151" class="edge"><title>670&#45;&gt;570</title>
<path style="fill:none;stroke:black;" d="M605,16C589,16 558,16 537,16"/>
<polygon style="fill:black;stroke:black;" points="537,19 527,16 537,12 537,19"/>
</g>
</g>
</svg>
