<?xml version="1.0" encoding="UTF-8" standalone="no"?>
<svg
   xmlns:dc="http://purl.org/dc/elements/1.1/"
   xmlns:cc="http://web.resource.org/cc/"
   xmlns:rdf="http://www.w3.org/1999/02/22-rdf-syntax-ns#"
   xmlns:svg="http://www.w3.org/2000/svg"
   xmlns="http://www.w3.org/2000/svg"
   xmlns:sodipodi="http://sodipodi.sourceforge.net/DTD/sodipodi-0.dtd"
   xmlns:inkscape="http://www.inkscape.org/namespaces/inkscape"
   width="8in"
   height="8in"
   viewBox="0 0 1 1"
   preserveAspectRatio="none"
   id="svg2"
   sodipodi:version="0.32"
   inkscape:version="0.45"
   sodipodi:docname="tetra3D.svg"
   inkscape:output_extension="org.inkscape.output.svg.inkscape"
   sodipodi:docbase="/home/dcoeurjo/HDR/Figures"
   sodipodi:modified="true">
  <metadata
     id="metadata67">
    <rdf:RDF>
      <cc:Work
         rdf:about="">
        <dc:format>image/svg+xml</dc:format>
        <dc:type
           rdf:resource="http://purl.org/dc/dcmitype/StillImage" />
      </cc:Work>
    </rdf:RDF>
  </metadata>
  <defs
     id="defs65">


























</defs>
  <sodipodi:namedview
     inkscape:window-height="616"
     inkscape:window-width="803"
     inkscape:pageshadow="2"
     inkscape:pageopacity="0.0"
     guidetolerance="10.0"
     gridtolerance="10.0"
     objecttolerance="10.0"
     borderopacity="1.0"
     bordercolor="#666666"
     pagecolor="#ffffff"
     id="base"
     inkscape:zoom="1.1305556"
     inkscape:cx="397.63004"
     inkscape:cy="525.389"
     inkscape:window-x="474"
     inkscape:window-y="202"
     inkscape:current-layer="svg2" />
  <title
     id="title4">SVG drawing</title>
  <desc
     id="desc6">This was produced by version 4.1 of GNU libplot, a free library for exporting 2-D vector graphics.</desc>
  <polygon
     id="polygon12"
     style="font-style:normal;font-variant:normal;font-weight:normal;font-stretch:normal;letter-spacing:normal;word-spacing:normal;text-anchor:start;fill:#00ff00;fill-opacity:1;stroke:#00ff00;stroke-width:0;stroke-linecap:butt;stroke-linejoin:miter;stroke-miterlimit:10.43299961;stroke-dasharray:none;stroke-dashoffset:0;stroke-opacity:1"
     points="168.85,771.4 146.14,613.83 166,684.97 168.85,771.4 "
     transform="matrix(1.7361e-3,0,0,-1.7361e-3,0.1161701,1.5044533)" />
  <polygon
     id="polygon14"
     style="font-style:normal;font-variant:normal;font-weight:normal;font-stretch:normal;letter-spacing:normal;word-spacing:normal;text-anchor:start;fill:none;fill-opacity:1;stroke:#000000;stroke-width:0.80000001;stroke-linecap:butt;stroke-linejoin:miter;stroke-miterlimit:10.43299961;stroke-dasharray:none;stroke-dashoffset:0;stroke-opacity:1"
     points="168.85,771.4 146.14,613.83 166,684.97 168.85,771.4 "
     transform="matrix(1.7361e-3,0,0,-1.7361e-3,0.1161701,1.5044533)" />
  <polygon
     id="polygon16"
     style="font-style:normal;font-variant:normal;font-weight:normal;font-stretch:normal;letter-spacing:normal;word-spacing:normal;text-anchor:start;fill:#00ff00;fill-opacity:1;stroke:#00ff00;stroke-width:0;stroke-linecap:butt;stroke-linejoin:miter;stroke-miterlimit:10.43299961;stroke-dasharray:none;stroke-dashoffset:0;stroke-opacity:1"
     points="146.14,614.11 166.29,685.25 117.71,676.11 146.14,614.11 "
     transform="matrix(1.7361e-3,0,0,-1.7361e-3,0.1161701,1.5044533)" />
  <polygon
     id="polygon18"
     style="font-style:normal;font-variant:normal;font-weight:normal;font-stretch:normal;letter-spacing:normal;word-spacing:normal;text-anchor:start;fill:none;fill-opacity:1;stroke:#000000;stroke-width:0.80000001;stroke-linecap:butt;stroke-linejoin:miter;stroke-miterlimit:10.43299961;stroke-dasharray:none;stroke-dashoffset:0;stroke-opacity:1"
     points="146.14,614.11 166.29,685.25 117.71,676.11 146.14,614.11 "
     transform="matrix(1.7361e-3,0,0,-1.7361e-3,0.1161701,1.5044533)" />
  <polygon
     id="polygon20"
     style="font-style:normal;font-variant:normal;font-weight:normal;font-stretch:normal;letter-spacing:normal;word-spacing:normal;text-anchor:start;fill:#00ff00;fill-opacity:1;stroke:#00ff00;stroke-width:0;stroke-linecap:butt;stroke-linejoin:miter;stroke-miterlimit:10.43299961;stroke-dasharray:none;stroke-dashoffset:0;stroke-opacity:1"
     points="165.85,684.83 117.71,676.4 169,771.4 165.85,684.83 "
     transform="matrix(1.7361e-3,0,0,-1.7361e-3,0.1161701,1.5044533)" />
  <polygon
     id="polygon22"
     style="font-style:normal;font-variant:normal;font-weight:normal;font-stretch:normal;letter-spacing:normal;word-spacing:normal;text-anchor:start;fill:none;fill-opacity:1;stroke:#000000;stroke-width:0.80000001;stroke-linecap:butt;stroke-linejoin:miter;stroke-miterlimit:10.43299961;stroke-dasharray:none;stroke-dashoffset:0;stroke-opacity:1"
     points="165.85,684.83 117.71,676.4 169,771.4 165.85,684.83 "
     transform="matrix(1.7361e-3,0,0,-1.7361e-3,0.1161701,1.5044533)" />
  <polygon
     id="polygon24"
     style="font-style:normal;font-variant:normal;font-weight:normal;font-stretch:normal;letter-spacing:normal;word-spacing:normal;text-anchor:start;fill:#00ff00;fill-opacity:1;stroke:#00ff00;stroke-width:0;stroke-linecap:butt;stroke-linejoin:miter;stroke-miterlimit:10.43299961;stroke-dasharray:none;stroke-dashoffset:0;stroke-opacity:1"
     points="166.29,684.97 223.43,669.83 169.14,770.4 166.29,684.97 "
     transform="matrix(1.7361e-3,0,0,-1.7361e-3,0.1161701,1.5044533)" />
  <polygon
     id="polygon26"
     style="font-style:normal;font-variant:normal;font-weight:normal;font-stretch:normal;letter-spacing:normal;word-spacing:normal;text-anchor:start;fill:none;fill-opacity:1;stroke:#000000;stroke-width:0.80000001;stroke-linecap:butt;stroke-linejoin:miter;stroke-miterlimit:10.43299961;stroke-dasharray:none;stroke-dashoffset:0;stroke-opacity:1"
     points="166.29,684.97 223.43,669.83 169.14,770.4 166.29,684.97 "
     transform="matrix(1.7361e-3,0,0,-1.7361e-3,0.1161701,1.5044533)" />
  <polygon
     id="polygon28"
     style="font-style:normal;font-variant:normal;font-weight:normal;font-stretch:normal;letter-spacing:normal;word-spacing:normal;text-anchor:start;fill:#00ff00;fill-opacity:1;stroke:#00ff00;stroke-width:0;stroke-linecap:butt;stroke-linejoin:miter;stroke-miterlimit:10.43299961;stroke-dasharray:none;stroke-dashoffset:0;stroke-opacity:1"
     points="117.86,676.11 166.29,685.11 223.43,669.68 117.86,676.11 "
     transform="matrix(1.7361e-3,0,0,-1.7361e-3,0.1161701,1.5044533)" />
  <polygon
     id="polygon32"
     style="font-style:normal;font-variant:normal;font-weight:normal;font-stretch:normal;letter-spacing:normal;word-spacing:normal;text-anchor:start;fill:#00ff00;fill-opacity:1;stroke:#00ff00;stroke-width:0;stroke-linecap:butt;stroke-linejoin:miter;stroke-miterlimit:10.43299961;stroke-dasharray:none;stroke-dashoffset:0;stroke-opacity:1"
     points="146.29,614.25 223.43,669.54 166.14,685.11 146.29,614.25 "
     transform="matrix(1.7361e-3,0,0,-1.7361e-3,0.1161701,1.5044533)" />
  <polygon
     id="polygon34"
     style="font-style:normal;font-variant:normal;font-weight:normal;font-stretch:normal;letter-spacing:normal;word-spacing:normal;text-anchor:start;fill:none;fill-opacity:1;stroke:#000000;stroke-width:0.80000001;stroke-linecap:butt;stroke-linejoin:miter;stroke-miterlimit:10.43299961;stroke-dasharray:none;stroke-dashoffset:0;stroke-opacity:1"
     points="146.29,614.25 223.43,669.54 166.14,685.11 146.29,614.25 "
     transform="matrix(1.7361e-3,0,0,-1.7361e-3,0.1161701,1.5044533)" />
  <path
     id="path40"
     style="font-style:normal;font-variant:normal;font-weight:normal;font-stretch:normal;letter-spacing:normal;word-spacing:normal;text-anchor:start;fill:#ff0000;fill-opacity:1;fill-rule:nonzero;stroke:#ff0000;stroke-width:0;stroke-linecap:butt;stroke-linejoin:miter;stroke-miterlimit:10.43299961;stroke-dasharray:none;stroke-dashoffset:0;stroke-opacity:1"
     d="M 0.38056082,0.4368039 L 0.38054346,0.43735946 L 0.38050874,0.43791501 L 0.38043929,0.43847056 L 0.38033513,0.43900875 L 0.3802136,0.43952958 L 0.38007471,0.44005041 L 0.3799011,0.44055388 L 0.37969277,0.44105735 L 0.37948444,0.4415261 L 0.37924138,0.4420122 L 0.37898097,0.44246359 L 0.37868583,0.44289761 L 0.37839069,0.44333164 L 0.37806083,0.4437483 L 0.37773098,0.44414761 L 0.37736639,0.44451219 L 0.37698445,0.44487677 L 0.37658515,0.44522399 L 0.37616849,0.44555385 L 0.37575182,0.44584898 L 0.37530044,0.44614412 L 0.37484905,0.44640454 L 0.3743803,0.44664759 L 0.37389419,0.44685592 L 0.37339073,0.44704689 L 0.37288726,0.4472205 L 0.37236643,0.44737675 L 0.3718456,0.44749828 L 0.37130741,0.44758508 L 0.37075185,0.44765453 L 0.3701963,0.44770661 L 0.36964075,0.44772397 C 0.36361648,0.44772397 0.35872068,0.44282817 0.35872068,0.4368039 C 0.35872068,0.43077964 0.36361648,0.4259012 0.36964075,0.4259012 C 0.37566502,0.4259012 0.38056082,0.43077964 0.38056082,0.4368039 z " />
  <path
     id="path42"
     style="font-style:normal;font-variant:normal;font-weight:normal;font-stretch:normal;letter-spacing:normal;word-spacing:normal;text-anchor:start;fill:none;fill-opacity:1;stroke:#000000;stroke-width:0.00138888;stroke-linecap:butt;stroke-linejoin:miter;stroke-miterlimit:10.43299961;stroke-dasharray:none;stroke-dashoffset:0;stroke-opacity:1"
     d="M 0.38056082,0.4368039 L 0.38054346,0.43735946 L 0.38050874,0.43791501 L 0.38043929,0.43847056 L 0.38033513,0.43900875 L 0.3802136,0.43952958 L 0.38007471,0.44005041 L 0.3799011,0.44055388 L 0.37969277,0.44105735 L 0.37948444,0.4415261 L 0.37924138,0.4420122 L 0.37898097,0.44246359 L 0.37868583,0.44289761 L 0.37839069,0.44333164 L 0.37806083,0.4437483 L 0.37773098,0.44414761 L 0.37736639,0.44451219 L 0.37698445,0.44487677 L 0.37658515,0.44522399 L 0.37616849,0.44555385 L 0.37575182,0.44584898 L 0.37530044,0.44614412 L 0.37484905,0.44640454 L 0.3743803,0.44664759 L 0.37389419,0.44685592 L 0.37339073,0.44704689 L 0.37288726,0.4472205 L 0.37236643,0.44737675 L 0.3718456,0.44749828 L 0.37130741,0.44758508 L 0.37075185,0.44765453 L 0.3701963,0.44770661 L 0.36964075,0.44772397 C 0.36361648,0.44772397 0.35872068,0.44282817 0.35872068,0.4368039 C 0.35872068,0.43077964 0.36361648,0.4259012 0.36964075,0.4259012 C 0.37566502,0.4259012 0.38056082,0.43077964 0.38056082,0.4368039 z " />
  <path
     id="path44"
     style="font-style:normal;font-variant:normal;font-weight:normal;font-stretch:normal;letter-spacing:normal;word-spacing:normal;text-anchor:start;fill:#ff0000;fill-opacity:1;fill-rule:nonzero;stroke:#ff0000;stroke-width:0;stroke-linecap:butt;stroke-linejoin:miter;stroke-miterlimit:10.43299961;stroke-dasharray:none;stroke-dashoffset:0;stroke-opacity:1"
     d="M 0.33788748,0.3309018 L 0.33787012,0.33173513 L 0.33781804,0.33255109 L 0.33771387,0.33336706 L 0.33757498,0.33416567 L 0.33738401,0.33492955 L 0.33717568,0.33569344 L 0.33691527,0.33645732 L 0.33662013,0.33718648 L 0.33630763,0.33789828 L 0.33594305,0.33859272 L 0.33556111,0.3392698 L 0.33514444,0.33992952 L 0.33469306,0.34055452 L 0.33420695,0.34116215 L 0.33370348,0.34175242 L 0.33316529,0.34230798 L 0.33260974,0.34284617 L 0.33201946,0.34334964 L 0.33141183,0.34381838 L 0.33078683,0.34426977 L 0.33012711,0.34470379 L 0.32945003,0.34508574 L 0.3287556,0.34543296 L 0.32804379,0.34576282 L 0.32731463,0.34605795 L 0.32656811,0.34630101 L 0.32580423,0.3465267 L 0.32502298,0.34670031 L 0.32422437,0.3468392 L 0.32342577,0.34694336 L 0.3226098,0.34701281 L 0.32177647,0.34703017 C 0.31288764,0.34703017 0.3056481,0.33980799 0.3056481,0.3309018 C 0.3056481,0.32201297 0.31288764,0.31479079 0.32177647,0.31479079 C 0.33068267,0.31479079 0.33788748,0.32201297 0.33788748,0.3309018 z " />
  <path
     id="path46"
     style="font-style:normal;font-variant:normal;font-weight:normal;font-stretch:normal;letter-spacing:normal;word-spacing:normal;text-anchor:start;fill:none;fill-opacity:1;stroke:#000000;stroke-width:0.00138888;stroke-linecap:butt;stroke-linejoin:miter;stroke-miterlimit:10.43299961;stroke-dasharray:none;stroke-dashoffset:0;stroke-opacity:1"
     d="M 0.33788748,0.3309018 L 0.33787012,0.33173513 L 0.33781804,0.33255109 L 0.33771387,0.33336706 L 0.33757498,0.33416567 L 0.33738401,0.33492955 L 0.33717568,0.33569344 L 0.33691527,0.33645732 L 0.33662013,0.33718648 L 0.33630763,0.33789828 L 0.33594305,0.33859272 L 0.33556111,0.3392698 L 0.33514444,0.33992952 L 0.33469306,0.34055452 L 0.33420695,0.34116215 L 0.33370348,0.34175242 L 0.33316529,0.34230798 L 0.33260974,0.34284617 L 0.33201946,0.34334964 L 0.33141183,0.34381838 L 0.33078683,0.34426977 L 0.33012711,0.34470379 L 0.32945003,0.34508574 L 0.3287556,0.34543296 L 0.32804379,0.34576282 L 0.32731463,0.34605795 L 0.32656811,0.34630101 L 0.32580423,0.3465267 L 0.32502298,0.34670031 L 0.32422437,0.3468392 L 0.32342577,0.34694336 L 0.3226098,0.34701281 L 0.32177647,0.34703017 C 0.31288764,0.34703017 0.3056481,0.33980799 0.3056481,0.3309018 C 0.3056481,0.32201297 0.31288764,0.31479079 0.32177647,0.31479079 C 0.33068267,0.31479079 0.33788748,0.32201297 0.33788748,0.3309018 z " />
  <path
     id="path48"
     style="font-style:normal;font-variant:normal;font-weight:normal;font-stretch:normal;letter-spacing:normal;word-spacing:normal;text-anchor:start;fill:#ff0000;fill-opacity:1;fill-rule:nonzero;stroke:#ff0000;stroke-width:0;stroke-linecap:butt;stroke-linejoin:miter;stroke-miterlimit:10.43299961;stroke-dasharray:none;stroke-dashoffset:0;stroke-opacity:1"
     d="M 0.51200095,0.34057188 L 0.51198359,0.34104062 L 0.51194887,0.34149201 L 0.51189678,0.3419434 L 0.51180998,0.34237742 L 0.51170581,0.34281145 L 0.51158429,0.34322811 L 0.5114454,0.34364477 L 0.51128915,0.34404408 L 0.51111554,0.34444338 L 0.51090721,0.34482532 L 0.51069887,0.34520726 L 0.51047318,0.34557184 L 0.51021277,0.34591906 L 0.50995235,0.34624892 L 0.50967458,0.34657878 L 0.50937944,0.34689128 L 0.50906694,0.34718642 L 0.50873708,0.34746419 L 0.50840722,0.34772461 L 0.50806,0.34798502 L 0.50769542,0.34821072 L 0.50731348,0.34841905 L 0.50693154,0.34862738 L 0.50653223,0.34880099 L 0.50613293,0.34895724 L 0.50571627,0.34909613 L 0.5052996,0.34921765 L 0.50486558,0.34932182 L 0.50443155,0.34940863 L 0.50398017,0.34946071 L 0.50352878,0.34949543 L 0.50306003,0.34951279 C 0.49814687,0.34951279 0.49413648,0.3455024 0.49413648,0.34057188 C 0.49413648,0.33565871 0.49814687,0.33164832 0.50306003,0.33164832 C 0.50799056,0.33164832 0.51200095,0.33565871 0.51200095,0.34057188 z " />
  <path
     id="path50"
     style="font-style:normal;font-variant:normal;font-weight:normal;font-stretch:normal;letter-spacing:normal;word-spacing:normal;text-anchor:start;fill:none;fill-opacity:1;stroke:#000000;stroke-width:0.00138888;stroke-linecap:butt;stroke-linejoin:miter;stroke-miterlimit:10.43299961;stroke-dasharray:none;stroke-dashoffset:0;stroke-opacity:1"
     d="M 0.51200095,0.34057188 L 0.51198359,0.34104062 L 0.51194887,0.34149201 L 0.51189678,0.3419434 L 0.51180998,0.34237742 L 0.51170581,0.34281145 L 0.51158429,0.34322811 L 0.5114454,0.34364477 L 0.51128915,0.34404408 L 0.51111554,0.34444338 L 0.51090721,0.34482532 L 0.51069887,0.34520726 L 0.51047318,0.34557184 L 0.51021277,0.34591906 L 0.50995235,0.34624892 L 0.50967458,0.34657878 L 0.50937944,0.34689128 L 0.50906694,0.34718642 L 0.50873708,0.34746419 L 0.50840722,0.34772461 L 0.50806,0.34798502 L 0.50769542,0.34821072 L 0.50731348,0.34841905 L 0.50693154,0.34862738 L 0.50653223,0.34880099 L 0.50613293,0.34895724 L 0.50571627,0.34909613 L 0.5052996,0.34921765 L 0.50486558,0.34932182 L 0.50443155,0.34940863 L 0.50398017,0.34946071 L 0.50352878,0.34949543 L 0.50306003,0.34951279 C 0.49814687,0.34951279 0.49413648,0.3455024 0.49413648,0.34057188 C 0.49413648,0.33565871 0.49814687,0.33164832 0.50306003,0.33164832 C 0.50799056,0.33164832 0.51200095,0.33565871 0.51200095,0.34057188 z " />
  <path
     id="path52"
     style="font-style:normal;font-variant:normal;font-weight:normal;font-stretch:normal;letter-spacing:normal;word-spacing:normal;text-anchor:start;fill:#ff0000;fill-opacity:1;fill-rule:nonzero;stroke:#ff0000;stroke-width:0;stroke-linecap:butt;stroke-linejoin:miter;stroke-miterlimit:10.43299961;stroke-dasharray:none;stroke-dashoffset:0;stroke-opacity:1"
     d="M 0.43858128,0.16473967 L 0.43854656,0.1662848 L 0.43842503,0.16779521 L 0.43823406,0.16930562 L 0.43797365,0.1707813 L 0.43764379,0.17222226 L 0.43722712,0.17364587 L 0.43675838,0.17505211 L 0.43622019,0.17640626 L 0.43562991,0.17774306 L 0.43495283,0.17902777 L 0.43424103,0.18029513 L 0.43345979,0.1815104 L 0.4326091,0.18269095 L 0.43172369,0.18381941 L 0.43078619,0.18491315 L 0.42979662,0.18595481 L 0.42875496,0.18694439 L 0.42766121,0.18788188 L 0.42651539,0.18878466 L 0.4253522,0.18961798 L 0.42413693,0.19039923 L 0.42286958,0.19111103 L 0.42158486,0.19178811 L 0.42024807,0.19237838 L 0.41889391,0.19291657 L 0.41748767,0.19338532 L 0.41606406,0.19380199 L 0.4146231,0.19413185 L 0.41314742,0.19439226 L 0.41163701,0.19458323 L 0.41010924,0.19470476 L 0.40858147,0.19473948 C 0.39200172,0.19473948 0.3785643,0.18130207 0.3785643,0.16473967 C 0.3785643,0.14817728 0.39200172,0.1347225 0.40858147,0.1347225 C 0.42512651,0.1347225 0.43858128,0.14817728 0.43858128,0.16473967 z " />
  <path
     id="path54"
     style="font-style:normal;font-variant:normal;font-weight:normal;font-stretch:normal;letter-spacing:normal;word-spacing:normal;text-anchor:start;fill:none;fill-opacity:1;stroke:#000000;stroke-width:0.00138888;stroke-linecap:butt;stroke-linejoin:miter;stroke-miterlimit:10.43299961;stroke-dasharray:none;stroke-dashoffset:0;stroke-opacity:1"
     d="M 0.43858128,0.16473967 L 0.43854656,0.1662848 L 0.43842503,0.16779521 L 0.43823406,0.16930562 L 0.43797365,0.1707813 L 0.43764379,0.17222226 L 0.43722712,0.17364587 L 0.43675838,0.17505211 L 0.43622019,0.17640626 L 0.43562991,0.17774306 L 0.43495283,0.17902777 L 0.43424103,0.18029513 L 0.43345979,0.1815104 L 0.4326091,0.18269095 L 0.43172369,0.18381941 L 0.43078619,0.18491315 L 0.42979662,0.18595481 L 0.42875496,0.18694439 L 0.42766121,0.18788188 L 0.42651539,0.18878466 L 0.4253522,0.18961798 L 0.42413693,0.19039923 L 0.42286958,0.19111103 L 0.42158486,0.19178811 L 0.42024807,0.19237838 L 0.41889391,0.19291657 L 0.41748767,0.19338532 L 0.41606406,0.19380199 L 0.4146231,0.19413185 L 0.41314742,0.19439226 L 0.41163701,0.19458323 L 0.41010924,0.19470476 L 0.40858147,0.19473948 C 0.39200172,0.19473948 0.3785643,0.18130207 0.3785643,0.16473967 C 0.3785643,0.14817728 0.39200172,0.1347225 0.40858147,0.1347225 C 0.42512651,0.1347225 0.43858128,0.14817728 0.43858128,0.16473967 z " />
  <line
     id="line56"
     style="font-style:normal;font-variant:normal;font-weight:normal;font-stretch:normal;letter-spacing:normal;word-spacing:normal;text-anchor:start;fill:none;fill-opacity:1;stroke:#000000;stroke-width:0.00138888;stroke-linecap:butt;stroke-linejoin:miter;stroke-miterlimit:10.43299961;stroke-dasharray:none;stroke-dashoffset:0;stroke-opacity:1"
     y2="0.3240616"
     x2="0.30734947"
     y1="0.15322933"
     x1="0.38075179" />
  <line
     id="line58"
     style="font-style:normal;font-variant:normal;font-weight:normal;font-stretch:normal;letter-spacing:normal;word-spacing:normal;text-anchor:start;fill:none;fill-opacity:1;stroke:#000000;stroke-width:0.00138888;stroke-linecap:butt;stroke-linejoin:miter;stroke-miterlimit:10.43299961;stroke-dasharray:none;stroke-dashoffset:0;stroke-opacity:1"
     y2="0.44100529"
     x2="0.35972759"
     y1="0.33909619"
     x1="0.30813071" />
  <line
     id="line60"
     style="font-style:normal;font-variant:normal;font-weight:normal;font-stretch:normal;letter-spacing:normal;word-spacing:normal;text-anchor:start;fill:none;fill-opacity:1;stroke:#000000;stroke-width:0.00138888;stroke-linecap:butt;stroke-linejoin:miter;stroke-miterlimit:10.43299961;stroke-dasharray:none;stroke-dashoffset:0;stroke-opacity:1"
     y2="0.34751624"
     x2="0.50903219"
     y1="0.4467344"
     x1="0.37458864" />
  <path
     id="path62"
     style="font-style:normal;font-variant:normal;font-weight:normal;font-stretch:normal;letter-spacing:normal;word-spacing:normal;text-anchor:start;fill:none;fill-opacity:1;stroke:#000000;stroke-width:0.00138888;stroke-linecap:butt;stroke-linejoin:miter;stroke-miterlimit:10.43299961;stroke-dasharray:none;stroke-dashoffset:0;stroke-opacity:1"
     d="M 0.51156692,0.33836703 C 0.50710515,0.32894001 0.43587297,0.15170156 0.43587297,0.15170156" />
  <g
     id="g3224"
     transform="matrix(1.0391865,0,0,1.0391865,-0.4022188,2.4987444e-2)"
     style="fill:#0000ff;fill-opacity:1">
    <path
       d="M 0.84327996,0.27149877 L 0.84321051,0.27467583 L 0.84296746,0.27780081 L 0.84256816,0.28089107 L 0.84202997,0.28392924 L 0.84133553,0.28691534 L 0.8405022,0.28984935 L 0.83952998,0.29273127 L 0.83843624,0.29552639 L 0.83718625,0.29826943 L 0.83583209,0.30092566 L 0.83433904,0.30351245 L 0.83272447,0.30601244 L 0.83100573,0.30844298 L 0.82916547,0.31076935 L 0.82723839,0.31302628 L 0.8251898,0.31516168 L 0.82303703,0.31721028 L 0.82079746,0.31915471 L 0.81847109,0.32097762 L 0.81604055,0.32271372 L 0.81354057,0.32431093 L 0.81095378,0.32580398 L 0.80828018,0.3271755 L 0.80555451,0.32840813 L 0.80274202,0.32951923 L 0.79987746,0.33047409 L 0.79694345,0.33130741 L 0.79395736,0.33200185 L 0.79091918,0.33254004 L 0.78782892,0.33293935 L 0.78468658,0.3331824 L 0.78150952,0.33326921 C 0.74741252,0.33326921 0.71973908,0.30559577 0.71973908,0.27149877 C 0.71973908,0.23740176 0.74741252,0.20972833 0.78150952,0.20972833 C 0.81560653,0.20972833 0.84327996,0.23740176 0.84327996,0.27149877 z "
       style="font-style:normal;font-variant:normal;font-weight:normal;font-stretch:normal;letter-spacing:normal;word-spacing:normal;text-anchor:start;fill:#0000ff;fill-opacity:1;fill-rule:nonzero;stroke:#0000ff;stroke-width:0;stroke-linecap:butt;stroke-linejoin:miter;stroke-miterlimit:10.43299961;stroke-dasharray:none;stroke-dashoffset:0;stroke-opacity:1"
       id="path3216" />
    <path
       d="M 0.84327996,0.27149877 L 0.84321051,0.27467583 L 0.84296746,0.27780081 L 0.84256816,0.28089107 L 0.84202997,0.28392924 L 0.84133553,0.28691534 L 0.8405022,0.28984935 L 0.83952998,0.29273127 L 0.83843624,0.29552639 L 0.83718625,0.29826943 L 0.83583209,0.30092566 L 0.83433904,0.30351245 L 0.83272447,0.30601244 L 0.83100573,0.30844298 L 0.82916547,0.31076935 L 0.82723839,0.31302628 L 0.8251898,0.31516168 L 0.82303703,0.31721028 L 0.82079746,0.31915471 L 0.81847109,0.32097762 L 0.81604055,0.32271372 L 0.81354057,0.32431093 L 0.81095378,0.32580398 L 0.80828018,0.3271755 L 0.80555451,0.32840813 L 0.80274202,0.32951923 L 0.79987746,0.33047409 L 0.79694345,0.33130741 L 0.79395736,0.33200185 L 0.79091918,0.33254004 L 0.78782892,0.33293935 L 0.78468658,0.3331824 L 0.78150952,0.33326921 C 0.74741252,0.33326921 0.71973908,0.30559577 0.71973908,0.27149877 C 0.71973908,0.23740176 0.74741252,0.20972833 0.78150952,0.20972833 C 0.81560653,0.20972833 0.84327996,0.23740176 0.84327996,0.27149877 z "
       style="font-style:normal;font-variant:normal;font-weight:normal;font-stretch:normal;letter-spacing:normal;word-spacing:normal;text-anchor:start;fill:#0000ff;fill-opacity:1;stroke:#000000;stroke-width:0.00185971;stroke-linecap:butt;stroke-linejoin:miter;stroke-miterlimit:10.43299961;stroke-dasharray:none;stroke-dashoffset:0;stroke-opacity:1"
       id="path3218" />
  </g>
</svg>
